<?xml version="1.0" standalone="no"?>
<!DOCTYPE svg PUBLIC "-//W3C//DTD SVG 20010904//EN"
 "http://www.w3.org/TR/2001/REC-SVG-20010904/DTD/svg10.dtd">
<svg version="1.0" xmlns="http://www.w3.org/2000/svg"
 width="120.000000pt" height="120.000000pt" viewBox="0 0 120.000000 120.000000"
 preserveAspectRatio="xMidYMid meet">
<metadata>
Created by potrace 1.14, written by Peter Selinger 2001-2017
</metadata>
<g transform="translate(0.000000,120.000000) scale(0.100000,-0.100000)"
fill="#000000" stroke="none">
<path d="M506 1193 c-1 -1 -35 -5 -75 -8 -39 -3 -83 -10 -97 -15 -14 -6 -28
-9 -32 -8 -9 3 -49 -10 -89 -29 -22 -10 -34 -24 -39 -46 -14 -64 -11 -80 25
-116 l36 -34 0 -179 c0 -161 -2 -179 -17 -184 -29 -9 -33 -51 -11 -92 11 -21
23 -54 26 -75 5 -34 2 -43 -22 -65 -40 -38 -48 -59 -45 -122 5 -82 38 -133 93
-147 14 -3 31 -8 36 -12 6 -3 15 -6 20 -7 6 -1 24 -5 40 -9 47 -10 189 -28
220 -28 66 2 193 17 209 25 12 6 21 10 21 8 0 -5 78 11 90 18 5 4 17 7 25 9
25 3 68 63 74 102 3 20 8 62 11 94 5 57 4 59 -32 95 l-38 37 -1 271 0 271 28
19 c29 20 43 60 34 104 -2 14 -5 30 -5 36 -1 13 -85 51 -123 55 -4 0 -22 4
-40 10 -49 14 -312 32 -322 22z"/>
</g>
</svg>
